<svg aria-hidden="true" style="position: absolute; width: 0; height: 0; overflow: hidden;" version="1.1" xmlns="http://www.w3.org/2000/svg" xmlns:xlink="http://www.w3.org/1999/xlink">
<defs>
<symbol id="search-icon" viewBox="0 0 24 24">
<path fill="none" stroke="currentColor" style="stroke: var(--color1, currentColor)" stroke-linejoin="round" stroke-linecap="round" stroke-miterlimit="10" stroke-width="1.7333" d="M10.581 20.288c5.361 0 9.707-4.346 9.707-9.707s-4.346-9.707-9.707-9.707c-5.361 0-9.707 4.346-9.707 9.707s4.346 9.707 9.707 9.707z"></path>
<path fill="none" stroke="currentColor" style="stroke: var(--color1, currentColor)" stroke-linejoin="round" stroke-linecap="round" stroke-miterlimit="10" stroke-width="1.7333" d="M17.45 17.45l5.677 5.677"></path>
</symbol>
<symbol id="guarantee-icon" viewBox="0 0 24 24">
<path fill="none" stroke="currentColor" style="stroke: var(--color1, currentColor)" stroke-linejoin="round" stroke-linecap="round" stroke-miterlimit="10" stroke-width="1.2" d="M11.92 7.52l0.59 1.38c0.040 0.12 0.15 0.19 0.26 0.2l1.5 0.14c0.32 0.030 0.44 0.42 0.21 0.63l-1.13 0.99c-0.090 0.080-0.13 0.2-0.1 0.31l0.33 1.47c0.070 0.31-0.26 0.55-0.54 0.39l-1.29-0.77c-0.1-0.060-0.23-0.060-0.33 0l-1.29 0.77c-0.27 0.16-0.61-0.080-0.54-0.39l0.33-1.47c0.030-0.11-0.010-0.23-0.1-0.31l-1.13-0.99c-0.24-0.21-0.11-0.6 0.21-0.63l1.5-0.14c0.12-0.010 0.22-0.080 0.27-0.19l0.59-1.38c0.12-0.3 0.53-0.3 0.66-0.010z"></path>
<path fill="none" stroke="currentColor" style="stroke: var(--color1, currentColor)" stroke-linejoin="round" stroke-linecap="round" stroke-miterlimit="10" stroke-width="1.2" d="M18.387 10.445c0.026-3.756-2.998-6.821-6.753-6.847s-6.821 2.998-6.847 6.753 2.998 6.821 6.753 6.847c3.756 0.026 6.821-2.998 6.847-6.753z"></path>
<path fill="none" stroke="currentColor" style="stroke: var(--color1, currentColor)" stroke-linejoin="round" stroke-linecap="round" stroke-miterlimit="10" stroke-width="1.2" d="M10.66 17.13l-1.69 4.25-2.14-2.45-3.23 0.3 2.14-5.36"></path>
<path fill="none" stroke="currentColor" style="stroke: var(--color1, currentColor)" stroke-linejoin="round" stroke-linecap="round" stroke-miterlimit="10" stroke-width="1.2" d="M12.5 17.13l1.7 4.25 2.13-2.45 3.24 0.3-2.15-5.36"></path>
</symbol>
<symbol id="phone-icon" viewBox="0 0 24 24">
<path fill="none" stroke="currentColor" style="stroke: var(--color1, currentColor)" stroke-linejoin="round" stroke-linecap="round" stroke-miterlimit="10" stroke-width="1.2" d="M8.27 3.71l2.070-0.84c0.81-0.33 1.74 0.060 2.070 0.88l0.63 1.54c0.33 0.81-0.060 1.74-0.88 2.080l-2.29 0.93c0.24 1.15 0.61 2.5 1.19 3.96 0.65 1.65 1.4 3.010 2.080 4.1l2.29-0.93c0.82-0.33 1.75 0.060 2.080 0.88l0.63 1.54c0.33 0.82-0.060 1.75-0.88 2.080l-2.070 0.84-0.040 0.020c-2.23 0.9-4.8 0.030-5.96-2.070-0.78-1.41-1.55-2.99-2.26-4.76-0.64-1.6-1.14-3.13-1.52-4.55-0.63-2.33 0.59-4.76 2.82-5.67l0.040-0.030z"></path>
</symbol>
<symbol id="safe-icon" viewBox="0 0 24 24">
<path fill="none" stroke="currentColor" style="stroke: var(--color1, currentColor)" stroke-linejoin="round" stroke-linecap="round" stroke-miterlimit="10" stroke-width="1.2" d="M14.37 20.37l-2.57 1.42-2.57-1.43c-2.86-1.58-4.63-4.59-4.63-7.86v-7.1h14.39v7.1c0 3.27-1.77 6.28-4.62 7.87z"></path>
<path fill="none" stroke="currentColor" style="stroke: var(--color1, currentColor)" stroke-linejoin="round" stroke-linecap="round" stroke-miterlimit="10" stroke-width="1.2" d="M9.13 12.41l2.030 2.040 3.31-3.3"></path>
</symbol>
<symbol id="facebook-icon" viewBox="0 0 24 24">
<path fill="none" opacity="0.6" stroke="currentColor" style="stroke: var(--color1, currentColor)" stroke-linejoin="round" stroke-linecap="round" stroke-miterlimit="4" stroke-width="2" d="M18 2h-3c-1.326 0-2.598 0.527-3.536 1.464s-1.464 2.209-1.464 3.536v3h-3v4h3v8h4v-8h3l1-4h-4v-3c0-0.265 0.105-0.52 0.293-0.707s0.442-0.293 0.707-0.293h3v-4z"></path>
</symbol>
<symbol id="twitter-icon" viewBox="0 0 24 24">
<path fill="none" stroke="currentColor" style="stroke: var(--color1, currentColor)" stroke-linejoin="round" stroke-linecap="round" stroke-miterlimit="4" stroke-width="2" d="M23 3c-0.958 0.675-2.018 1.192-3.14 1.53-0.602-0.692-1.403-1.183-2.293-1.406s-1.827-0.167-2.685 0.161c-0.857 0.327-1.594 0.91-2.109 1.669s-0.785 1.659-0.773 2.576v1c-1.757 0.046-3.499-0.344-5.069-1.135s-2.921-1.957-3.931-3.395c0 0-4 9 5 13-2.059 1.398-4.513 2.099-7 2 9 5 20 0 20-11.5-0.001-0.279-0.028-0.556-0.080-0.83 1.021-1.006 1.741-2.277 2.080-3.67v0z"></path>
</symbol>
<symbol id="instagram-icon" viewBox="0 0 24 24">
<path fill="currentColor" style="fill: var(--color1, currentColor)" opacity="0.6" d="M7.465 1.066c1.173-0.054 1.547-0.066 4.535-0.066s3.362 0.013 4.534 0.066c1.172 0.053 1.972 0.24 2.672 0.511 0.733 0.277 1.398 0.71 1.948 1.27 0.56 0.549 0.992 1.213 1.268 1.947 0.272 0.7 0.458 1.5 0.512 2.67 0.054 1.175 0.066 1.549 0.066 4.536 0 2.988-0.013 3.362-0.066 4.535-0.053 1.17-0.24 1.97-0.512 2.67-0.276 0.734-0.709 1.399-1.268 1.949-0.55 0.56-1.215 0.992-1.948 1.268-0.7 0.272-1.5 0.458-2.67 0.512-1.174 0.054-1.548 0.066-4.536 0.066s-3.362-0.013-4.535-0.066c-1.17-0.053-1.97-0.24-2.67-0.512-0.734-0.276-1.399-0.709-1.949-1.268-0.56-0.549-0.993-1.214-1.269-1.948-0.271-0.7-0.457-1.5-0.511-2.67-0.054-1.175-0.066-1.549-0.066-4.536 0-2.988 0.013-3.362 0.066-4.534s0.24-1.972 0.511-2.672c0.277-0.734 0.71-1.399 1.27-1.948 0.549-0.56 1.213-0.993 1.947-1.269 0.7-0.271 1.5-0.457 2.67-0.511h0.001zM16.445 3.046c-1.16-0.053-1.508-0.064-4.445-0.064s-3.285 0.011-4.445 0.064c-1.073 0.049-1.655 0.228-2.043 0.379-0.513 0.2-0.88 0.437-1.265 0.822-0.365 0.355-0.646 0.787-0.822 1.265-0.151 0.388-0.33 0.97-0.379 2.043-0.053 1.16-0.064 1.508-0.064 4.445s0.011 3.285 0.064 4.445c0.049 1.073 0.228 1.655 0.379 2.043 0.176 0.477 0.457 0.91 0.822 1.265 0.355 0.365 0.788 0.646 1.265 0.822 0.388 0.151 0.97 0.33 2.043 0.379 1.16 0.053 1.507 0.064 4.445 0.064s3.285-0.011 4.445-0.064c1.073-0.049 1.655-0.228 2.043-0.379 0.513-0.2 0.88-0.437 1.265-0.822 0.365-0.355 0.646-0.788 0.822-1.265 0.151-0.388 0.33-0.97 0.379-2.043 0.053-1.16 0.064-1.508 0.064-4.445s-0.011-3.285-0.064-4.445c-0.049-1.073-0.228-1.655-0.379-2.043-0.2-0.513-0.437-0.88-0.822-1.265-0.355-0.365-0.787-0.646-1.265-0.822-0.388-0.151-0.97-0.33-2.043-0.379zM10.595 15.391c0.785 0.327 1.658 0.371 2.472 0.125s1.516-0.767 1.989-1.473c0.472-0.707 0.684-1.555 0.6-2.401s-0.459-1.636-1.061-2.236c-0.384-0.384-0.848-0.677-1.359-0.86s-1.056-0.25-1.596-0.197-1.061 0.226-1.527 0.505c-0.465 0.279-0.863 0.658-1.164 1.109s-0.499 0.963-0.579 1.5c-0.080 0.537-0.039 1.084 0.118 1.603s0.428 0.997 0.792 1.399c0.364 0.402 0.813 0.718 1.314 0.926zM8.002 8.002c0.525-0.525 1.148-0.942 1.834-1.226s1.421-0.43 2.164-0.43c0.742 0 1.478 0.146 2.164 0.43s1.309 0.701 1.834 1.226c0.525 0.525 0.942 1.148 1.226 1.834s0.43 1.421 0.43 2.164-0.146 1.478-0.43 2.164c-0.284 0.686-0.701 1.309-1.226 1.834-1.060 1.060-2.499 1.656-3.998 1.656s-2.938-0.596-3.998-1.656c-1.060-1.060-1.656-2.499-1.656-3.998s0.596-2.938 1.656-3.998zM18.908 7.188c0.13-0.123 0.234-0.27 0.306-0.434s0.111-0.34 0.113-0.519c0.003-0.179-0.031-0.356-0.098-0.522s-0.167-0.316-0.294-0.443c-0.126-0.126-0.277-0.226-0.443-0.294s-0.343-0.101-0.522-0.098c-0.179 0.003-0.355 0.041-0.519 0.113s-0.311 0.176-0.434 0.306c-0.239 0.253-0.369 0.589-0.364 0.937s0.145 0.68 0.391 0.926c0.246 0.246 0.578 0.386 0.926 0.391s0.684-0.126 0.937-0.364z"></path>
</symbol>
<symbol id="profile-icon" viewBox="0 0 24 24">
<path fill="none" stroke="currentColor" style="stroke: var(--color1, currentColor)" stroke-linejoin="round" stroke-linecap="round" stroke-miterlimit="10" stroke-width="1.2" d="M11.83 11.64c1.944 0 3.52-1.576 3.52-3.52s-1.576-3.52-3.52-3.52c-1.944 0-3.52 1.576-3.52 3.52s1.576 3.52 3.52 3.52z"></path>
<path fill="none" stroke="currentColor" style="stroke: var(--color1, currentColor)" stroke-linejoin="round" stroke-linecap="round" stroke-miterlimit="10" stroke-width="1.2" d="M19.070 18.56c-1.15-2.87-3.95-4.9-7.23-4.9s-6.090 2.030-7.23 4.9"></path>
</symbol>
<symbol id="cart-active-icon" viewBox="0 0 24 24">
<path fill="none" stroke="currentColor" style="stroke: var(--color1, currentColor)" stroke-linejoin="round" stroke-linecap="round" stroke-miterlimit="10" stroke-width="1.2" d="M17.327 19.22h-11.161c-1.111 0-1.983-0.98-1.916-2.13l0.718-11.65c0.029-0.53 0.45-0.94 0.958-0.94h11.64c0.508 0 0.92 0.41 0.958 0.94l0.718 11.65c0.067 1.15-0.805 2.13-1.916 2.13z"></path>
<path fill="none" stroke="currentColor" style="stroke: var(--color1, currentColor)" stroke-linejoin="round" stroke-linecap="round" stroke-miterlimit="10" stroke-width="1.2" d="M13.967 6.72v1.91c0 1.070-0.725 1.93-1.608 1.93h-1.167c-0.892 0-1.608-0.87-1.608-1.93v-1.91"></path>
<path fill="#ff2b2b" style="fill: var(--color2, #ff2b2b); stroke: var(--color3, #5a9bfe)" stroke="#5a9bfe" stroke-linejoin="miter" stroke-linecap="butt" stroke-miterlimit="4" stroke-width="1" d="M22 5c0 1.933-1.567 3.5-3.5 3.5s-3.5-1.567-3.5-3.5c0-1.933 1.567-3.5 3.5-3.5s3.5 1.567 3.5 3.5z"></path>
</symbol>
</defs>
</svg>
